<?xml version="1.0" standalone="no"?>
<!DOCTYPE svg PUBLIC "-//W3C//DTD SVG 20010904//EN"
 "http://www.w3.org/TR/2001/REC-SVG-20010904/DTD/svg10.dtd">
<svg version="1.0" xmlns="http://www.w3.org/2000/svg"
 width="320.000000pt" height="320.000000pt" viewBox="0 0 320.000000 320.000000"
 preserveAspectRatio="xMidYMid meet">

<g transform="translate(0.000000,320.000000) scale(0.100000,-0.100000)"
fill="#000000" stroke="none">
<path d="M1715 3079 c-523 -66 -964 -456 -1147 -1013 -36 -112 -78 -312 -78
-377 l0 -29 258 0 258 0 17 108 c54 321 209 610 415 774 143 114 271 158 451
158 172 -1 259 -32 366 -131 77 -73 127 -163 156 -285 19 -78 21 -109 16 -249
-4 -110 -12 -188 -26 -249 -12 -50 -21 -92 -21 -95 0 -4 60 -6 133 -7 139 -1
247 -15 334 -44 61 -20 54 -29 78 100 23 121 30 335 16 460 -57 505 -335 803
-813 874 -113 17 -299 19 -413 5z"/>
<path d="M2365 1630 c-175 -28 -320 -114 -388 -231 -54 -91 -71 -227 -42 -325
33 -111 106 -185 281 -284 108 -61 195 -134 214 -180 7 -17 11 -56 8 -94 -7
-112 -72 -180 -202 -213 -99 -24 -210 -9 -355 49 l-108 44 -33 -111 c-18 -60
-35 -118 -37 -127 -4 -13 12 -22 77 -42 192 -61 436 -73 595 -29 219 61 346
195 376 396 31 209 -53 359 -272 487 -112 66 -199 130 -218 162 -62 101 -9
218 116 254 84 24 235 15 333 -20 41 -15 81 -28 89 -29 11 -1 24 31 48 113 18
63 29 117 25 121 -12 11 -102 37 -167 49 -87 15 -271 20 -340 10z"/>
<path d="M351 1023 c-68 -323 -141 -668 -162 -767 l-37 -178 336 5 c376 5 453
14 602 71 126 47 193 90 285 181 144 144 211 296 235 530 12 121 -1 267 -32
360 -60 180 -195 302 -397 357 -68 19 -109 22 -391 26 l-316 4 -123 -589z
m611 343 c148 -27 252 -97 305 -205 57 -116 37 -378 -41 -537 -66 -133 -171
-222 -319 -270 -70 -23 -105 -27 -239 -32 -135 -4 -158 -2 -158 10 0 15 207
1014 215 1036 6 16 137 15 237 -2z"/>
<path d="M767 1314 c-3 -10 -24 -110 -47 -222 l-42 -203 26 -38 c60 -86 45
-82 297 -79 l224 3 12 55 c6 30 11 73 12 95 0 36 -4 43 -43 72 -56 41 -137
162 -162 241 -18 59 -20 61 -63 72 -25 6 -82 14 -127 17 -74 5 -82 4 -87 -13z"/>
<path d="M2398 1336 c-90 -33 -124 -80 -105 -143 14 -44 59 -82 183 -157 l98
-59 29 34 c64 77 177 263 165 274 -3 3 -39 18 -79 32 -91 32 -233 41 -291 19z"/>
<path d="M1832 955 c-35 -18 -88 -38 -118 -45 l-54 -13 0 -48 c0 -26 -3 -54
-6 -63 -6 -14 19 -16 236 -16 l243 0 -44 31 c-60 43 -147 128 -165 162 -17 32
-12 32 -92 -8z"/>
</g>
</svg>
